<?xml version="1.0" standalone="no"?>
<!DOCTYPE svg PUBLIC "-//W3C//DTD SVG 20010904//EN"
 "http://www.w3.org/TR/2001/REC-SVG-20010904/DTD/svg10.dtd">
<svg version="1.0" xmlns="http://www.w3.org/2000/svg"
 width="820.000000pt" height="676.000000pt" viewBox="0 0 820.000000 676.000000"
 preserveAspectRatio="xMidYMid meet">

<g transform="translate(0.000000,676.000000) scale(0.100000,-0.100000)"
fill="#000000" stroke="none">
<path d="M3683 6232 c123 -165 164 -272 174 -453 14 -249 -70 -537 -277 -948
-121 -242 -270 -500 -807 -1391 -405 -672 -440 -740 -508 -975 -192 -663 132
-1290 914 -1769 216 -133 579 -296 658 -296 31 0 23 12 -182 255 -264 312
-405 654 -405 980 0 196 40 364 152 630 124 295 266 530 633 1045 104 146 227
324 273 395 151 235 271 503 303 680 55 303 -211 902 -697 1568 -99 135 -280
363 -296 373 -5 4 24 -39 65 -94z"/>
<path d="M4926 4335 c95 -230 59 -527 -106 -872 -91 -191 -165 -308 -517 -818
-148 -214 -379 -577 -422 -664 -50 -99 -65 -164 -65 -296 -1 -143 16 -217 79
-352 53 -112 91 -169 169 -250 76 -80 94 -82 58 -5 -66 143 -23 376 120 641
83 155 169 278 403 581 75 96 169 225 210 285 137 204 255 460 312 677 25 93
27 119 26 273 0 190 -14 262 -88 460 -37 101 -144 315 -178 357 -17 22 -17 22
-1 -17z"/>
<path d="M5631 3613 c115 -270 49 -739 -168 -1179 -56 -115 -158 -260 -291
-414 -428 -495 -499 -598 -571 -820 -77 -238 -110 -541 -70 -647 14 -38 35
-26 69 39 101 193 257 368 640 718 396 363 574 601 675 903 55 163 69 265 69
482 -1 310 -31 406 -233 745 -72 121 -134 220 -136 220 -2 0 5 -21 16 -47z"/>
</g>
</svg>
